<?xml version="1.0" standalone="no"?>
<!DOCTYPE svg PUBLIC "-//W3C//DTD SVG 20010904//EN"
 "http://www.w3.org/TR/2001/REC-SVG-20010904/DTD/svg10.dtd">
<svg version="1.0" xmlns="http://www.w3.org/2000/svg"
 width="700.000000pt" height="700.000000pt" viewBox="0 0 700.000000 700.000000"
 preserveAspectRatio="xMidYMid meet">
<metadata>
Created by potrace 1.14, written by Peter Selinger 2001-2017
</metadata>
<g transform="translate(0.000000,700.000000) scale(0.100000,-0.100000)"
fill="#000000" stroke="none">
<path d="M1506 5617 c-22 -16 -18 -46 7 -61 15 -9 22 -7 38 13 18 22 18 25 3
42 -20 23 -25 23 -48 6z"/>
<path d="M3057 5543 c-14 -13 -6 -53 12 -63 15 -7 23 -6 35 6 18 17 19 24 10
48 -6 16 -45 22 -57 9z"/>
<path d="M2070 5514 c0 -9 -9 -18 -20 -21 -11 -3 -20 -12 -20 -20 0 -8 9 -17
20 -20 11 -3 20 -11 20 -18 0 -22 31 -27 37 -6 3 11 13 21 24 24 25 7 24 27
-1 34 -11 3 -20 14 -20 24 0 12 -7 19 -20 19 -12 0 -20 -7 -20 -16z"/>
<path d="M4170 5510 c0 -13 -7 -20 -20 -20 -26 0 -26 -30 -1 -37 11 -3 21 -13
24 -24 7 -25 24 -24 32 0 3 11 15 23 26 26 24 8 25 35 0 35 -10 0 -21 9 -24
20 -3 11 -12 20 -21 20 -9 0 -16 -8 -16 -20z"/>
<path d="M5824 5504 c-92 -31 -129 -136 -78 -222 47 -80 174 -91 236 -19 101
114 -15 290 -158 241z m80 -76 c25 -11 32 -23 41 -68 6 -31 -36 -70 -75 -70
-27 0 -69 28 -71 48 0 4 -2 16 -4 26 -4 22 45 76 69 76 8 0 26 -5 40 -12z"/>
<path d="M712 5308 c-16 -16 -15 -28 4 -49 13 -14 20 -16 40 -7 23 11 27 30
11 56 -10 15 -39 16 -55 0z"/>
<path d="M3135 5165 c-55 -7 -113 -15 -130 -19 -16 -3 -43 -9 -60 -12 -194
-33 -475 -133 -720 -256 -120 -60 -165 -93 -165 -118 0 -10 23 -76 52 -146 31
-76 48 -129 41 -131 -5 -2 -31 -17 -57 -34 -42 -26 -47 -33 -44 -61 2 -23 11
-37 30 -47 24 -14 30 -13 76 12 l49 27 41 -98 c76 -182 144 -347 205 -497 60
-148 61 -151 61 -250 1 -93 4 -106 34 -167 28 -58 80 -118 124 -144 13 -8 33
-52 143 -323 38 -90 38 -94 22 -120 -86 -135 -76 -267 27 -365 35 -33 103 -66
148 -72 17 -2 32 -5 33 -6 2 -2 66 -158 144 -348 190 -467 193 -471 248 -440
23 13 49 68 165 349 76 184 140 336 142 339 3 2 23 5 45 7 85 7 165 65 199
145 34 81 15 189 -44 251 l-24 25 90 220 c50 120 94 222 98 225 4 4 39 9 77
13 145 12 249 64 347 170 44 48 100 152 117 216 41 154 -6 348 -114 468 -25
27 -45 54 -45 60 0 10 129 324 136 331 2 2 15 -4 28 -13 34 -22 72 -20 89 5
24 34 7 66 -58 104 -15 9 -11 24 41 152 55 134 57 142 42 165 -28 42 -348 196
-553 266 -175 60 -352 99 -550 122 -103 12 -415 9 -530 -5z"/>
<path d="M1291 5126 c-16 -19 -4 -45 42 -88 l40 -38 -46 -49 c-52 -55 -54 -62
-31 -85 23 -23 30 -21 84 30 l49 45 40 -41 c42 -44 67 -54 89 -37 21 17 13 42
-28 82 -22 21 -40 44 -40 50 0 6 18 29 40 50 41 40 49 62 28 83 -21 21 -41 13
-88 -33 l-46 -45 -44 45 c-46 47 -69 55 -89 31z"/>
<path d="M5010 5125 c-6 -8 -10 -22 -8 -32 4 -25 48 -30 65 -8 26 37 -27 76
-57 40z"/>
<path d="M6440 4870 c0 -14 -6 -20 -17 -18 -12 2 -18 -3 -18 -17 0 -13 6 -20
18 -19 10 1 17 -5 17 -17 0 -10 4 -20 8 -23 13 -8 35 11 28 23 -4 6 -1 11 6
11 20 0 37 20 31 36 -2 7 -11 10 -19 7 -9 -3 -14 2 -14 16 0 14 -6 21 -20 21
-13 0 -20 -7 -20 -20z"/>
<path d="M5823 4383 c-7 -3 -13 -11 -13 -18 0 -8 -9 -17 -21 -20 -24 -8 -21
-41 4 -37 11 2 17 -4 17 -18 0 -13 7 -20 20 -20 14 0 20 7 20 21 0 11 4 18 8
15 4 -2 14 -1 21 4 19 11 6 41 -14 34 -10 -4 -15 0 -15 14 0 23 -9 31 -27 25z"/>
<path d="M553 4161 c-3 -11 -14 -21 -25 -24 -25 -7 -20 -43 5 -39 11 2 17 -4
17 -18 0 -26 30 -27 37 0 3 11 14 20 25 20 13 0 18 6 16 18 -2 10 -11 16 -21
14 -11 -2 -17 4 -17 16 0 27 -30 38 -37 13z"/>
<path d="M1251 4132 c-20 -38 31 -71 59 -37 6 8 9 23 5 35 -8 25 -51 27 -64 2z"/>
<path d="M4744 4014 c-8 -31 6 -47 37 -42 16 2 25 11 27 27 7 44 -53 58 -64
15z"/>
<path d="M2110 3750 c0 -11 -3 -19 -7 -19 -35 6 -47 -25 -14 -36 10 -3 21 -15
24 -25 7 -28 26 -25 37 5 5 14 15 24 22 23 6 -2 14 5 16 15 2 12 -3 17 -17 17
-14 0 -21 6 -21 20 0 13 -7 20 -20 20 -13 0 -20 -7 -20 -20z"/>
<path d="M5545 3690 c-13 -41 43 -70 64 -33 13 25 -5 53 -34 53 -15 0 -26 -7
-30 -20z"/>
<path d="M1193 3508 c-44 -32 -66 -74 -65 -123 1 -74 37 -123 105 -145 123
-39 233 92 175 209 -26 54 -72 81 -134 81 -35 0 -58 -7 -81 -22z m140 -80 c23
-27 17 -83 -10 -104 -46 -35 -123 1 -123 58 0 67 91 98 133 46z"/>
<path d="M5885 3424 c-23 -23 -19 -34 31 -85 l46 -47 -46 -47 c-51 -53 -53
-60 -30 -86 20 -23 45 -12 88 38 16 18 34 33 40 33 7 0 30 -18 51 -40 41 -42
78 -52 89 -24 10 25 8 28 -40 79 l-45 49 45 44 c50 48 55 62 30 86 -19 19 -34
12 -86 -38 -20 -20 -40 -36 -44 -36 -4 0 -23 17 -43 38 -44 47 -66 56 -86 36z"/>
<path d="M4943 3251 c-3 -11 -13 -21 -24 -24 -10 -3 -19 -10 -19 -17 0 -7 9
-14 19 -17 11 -3 21 -13 24 -24 3 -10 10 -19 17 -19 7 0 14 9 17 19 3 11 13
21 24 24 25 7 25 37 -1 37 -13 0 -20 7 -20 20 0 26 -30 26 -37 1z"/>
<path d="M462 3198 c-19 -19 -14 -44 13 -56 21 -10 27 -8 39 10 27 39 -19 79
-52 46z"/>
<path d="M1713 3073 c-21 -8 -16 -60 6 -66 40 -10 68 32 39 61 -13 13 -24 14
-45 5z"/>
<path d="M2302 2808 c-18 -18 -14 -46 8 -58 15 -8 24 -6 40 10 17 17 18 23 8
40 -14 23 -38 26 -56 8z"/>
<path d="M4369 2793 c-1 -5 -1 -11 0 -16 1 -4 -10 -12 -24 -17 -14 -5 -25 -14
-25 -20 0 -6 11 -15 25 -20 14 -5 24 -15 23 -22 -2 -6 5 -14 15 -16 12 -2 17
3 17 17 0 14 6 21 20 21 11 0 20 7 20 15 0 8 -9 19 -20 25 -11 6 -20 17 -20
25 0 15 -29 22 -31 8z"/>
<path d="M1715 2611 c-3 -10 -15 -21 -26 -24 -25 -7 -21 -29 7 -37 10 -3 19
-12 19 -20 0 -8 8 -16 18 -18 12 -2 17 3 17 17 0 14 6 21 20 21 13 0 20 7 20
20 0 13 -7 20 -20 20 -13 0 -20 7 -20 20 0 25 -27 26 -35 1z"/>
<path d="M5383 2611 c-3 -11 -13 -21 -24 -24 -25 -7 -25 -37 1 -37 13 0 20 -7
20 -20 0 -26 30 -26 37 -1 3 11 13 21 24 24 10 3 19 10 19 17 0 7 -9 14 -19
17 -11 3 -21 13 -24 24 -3 10 -10 19 -17 19 -7 0 -14 -9 -17 -19z"/>
<path d="M6440 2571 c0 -10 -9 -21 -20 -24 -11 -3 -20 -12 -20 -21 0 -9 8 -16
20 -16 11 0 19 -3 19 -7 -6 -35 29 -48 38 -14 3 11 14 22 25 24 23 6 19 33 -5
31 -9 -1 -18 9 -21 22 -7 28 -36 32 -36 5z"/>
<path d="M840 2510 c-16 -16 -18 -25 -10 -40 21 -39 79 -13 65 29 -9 29 -33
33 -55 11z"/>
<path d="M2310 2244 c0 -9 -9 -18 -20 -21 -11 -3 -20 -14 -20 -24 0 -12 7 -19
20 -19 14 0 20 -7 20 -21 0 -14 5 -19 18 -17 9 2 16 11 16 21 -1 10 5 17 16
17 26 0 35 31 11 37 -11 3 -21 13 -24 24 -6 23 -37 26 -37 3z"/>
<path d="M4925 2113 c-31 -8 -83 -51 -100 -83 -57 -111 60 -247 178 -208 93
31 134 133 86 217 -30 54 -105 87 -164 74z m83 -93 c12 -12 23 -25 23 -30 1
-6 2 -16 3 -22 6 -34 -36 -78 -72 -78 -53 1 -88 49 -71 98 17 50 79 67 117 32z"/>
<path d="M1548 1859 c-29 -17 -20 -48 26 -94 l44 -43 -44 -43 c-33 -33 -44
-50 -42 -69 5 -42 46 -38 93 10 21 22 44 40 50 40 5 0 25 -18 44 -40 35 -40
67 -50 88 -29 16 16 6 38 -40 87 l-41 42 41 43 c59 61 64 91 16 98 -15 3 -36
-9 -67 -40 l-45 -44 -50 46 c-28 26 -51 47 -53 47 -2 0 -11 -5 -20 -11z"/>
<path d="M550 1760 c0 -13 -7 -20 -20 -20 -13 0 -20 -7 -20 -20 0 -13 7 -20
19 -20 10 0 21 -9 24 -20 3 -11 10 -20 17 -20 7 0 14 9 17 20 3 11 11 20 18
20 22 0 27 31 6 37 -11 3 -21 13 -24 24 -7 25 -37 25 -37 -1z"/>
<path d="M2797 1643 c-4 -3 -7 -17 -7 -29 0 -31 29 -46 54 -29 26 20 14 65
-18 65 -12 0 -26 -3 -29 -7z"/>
<path d="M3893 1551 c-3 -11 -13 -21 -24 -24 -25 -7 -25 -37 1 -37 13 0 20 -7
20 -20 0 -26 30 -26 37 -1 3 11 13 21 24 24 10 3 19 10 19 17 0 7 -9 14 -19
17 -11 3 -21 13 -24 24 -3 10 -10 19 -17 19 -7 0 -14 -9 -17 -19z"/>
<path d="M5770 1500 c0 -13 -7 -20 -20 -20 -26 0 -26 -30 -1 -37 11 -3 21 -13
24 -24 3 -10 10 -19 17 -19 7 0 14 9 17 19 3 11 13 21 24 24 10 3 19 10 19 17
0 7 -9 14 -19 17 -11 3 -21 13 -24 24 -7 25 -37 25 -37 -1z"/>
</g>
</svg>
