<?xml version="1.0" encoding="utf-8"?>
<!-- Uploaded to: SVG Repo, www.svgrepo.com, Generator: SVG Repo Mixer Tools -->
<svg width="800px" height="800px" viewBox="0 0 1024 1024" class="icon"  version="1.1" xmlns="http://www.w3.org/2000/svg"><path d="M694.250564 321.057674c-128.117747-73.210872-260.16107-73.210872-388.280865 0-3.920457 2.615003-5.228982 6.537508-3.920457 10.457964l189.564177 461.492761c1.305454 2.613979 3.921481 5.230006 7.843986 5.230006 3.920457 0 6.536484-2.616027 7.845009-5.230006L698.172045 331.516662c1.308525-3.921481 0-7.842962-3.921481-10.458988z" fill="#F26E3F" /><path d="M311.445438 329.777081l13.720063 33.255795s20.295455-1.55733 55.859088-11.994816 147.277713-21.260979 147.277713-21.260979l144.958613 41.7479 18.168845-41.7479-109.782009-44.067001-96.638392-13.769209-115.580271 30.390964-57.98365 27.445246z" fill="#F2C928" /><path d="M858.836034 250.541667c-6.092118 0-11.044651-4.954581-11.044651-11.046698 0-6.09007 4.953557-11.044651 11.044651-11.044651 6.091094 0 11.044651 4.954581 11.044651 11.044651 0 6.092118-4.953557 11.046699-11.044651 11.046698m0-33.137024c-12.199594 0-22.090326 9.890732-22.090326 22.090326 0 12.200618 9.890732 22.09135 22.090326 22.091349 12.19857 0 22.090326-9.890732 22.090326-22.091349 0-12.19857-9.891756-22.090326-22.090326-22.090326M725.619339 747.576559c-6.091094 0-11.044651-4.954581-11.044651-11.046698 0-6.09007 4.953557-11.044651 11.044651-11.044651 6.092118 0 11.044651 4.954581 11.044651 11.044651 0 6.092118-4.953557 11.046699-11.044651 11.046698m0-33.137024c-12.19857 0-22.090326 9.890732-22.090326 22.090326 0 12.200618 9.890732 22.09135 22.090326 22.091349s22.090326-9.890732 22.090326-22.091349c0-12.19857-9.891756-22.090326-22.090326-22.090326M186.575456 540.168109c-6.092118 0-11.044651-4.954581-11.044651-11.046699 0-6.09007 4.953557-11.044651 11.044651-11.044651 6.091094 0 11.044651 4.954581 11.044651 11.044651 0.001024 6.092118-4.952533 11.046699-11.044651 11.046699m0-33.136001c-12.199594 0-22.090326 9.890732-22.090326 22.090326 0 12.200618 9.890732 22.09135 22.090326 22.09135s22.090326-9.890732 22.090325-22.09135c0-12.199594-9.890732-22.090326-22.090325-22.090326M216.473931 293.096389l11.735774-11.73475c2.110228-2.104084 2.136849-5.633417-0.021502-7.786647a5.484954 5.484954 0 0 0-7.786648-0.022526l-11.735774 11.73475-11.735773-11.73475c-2.104084-2.10818-5.633417-2.137873-7.786648 0.022526a5.484954 5.484954 0 0 0-0.021502 7.786647l11.735774 11.73475-11.735774 11.73475c-2.110228 2.104084-2.136849 5.633417 0.021502 7.786648a5.482906 5.482906 0 0 0 7.786648 0.022525l11.735773-11.734749 11.735774 11.734749c2.104084 2.111252 5.627274 2.137873 7.786648-0.022525a5.484954 5.484954 0 0 0 0.021502-7.786648l-11.735774-11.73475zM887.798679 542.617243l11.735773-11.73475c2.110228-2.104084 2.136849-5.633417-0.021501-7.786648a5.484954 5.484954 0 0 0-7.786648-0.022525l-11.735774 11.734749-11.735774-11.734749c-2.104084-2.10818-5.633417-2.137873-7.786647 0.022525a5.484954 5.484954 0 0 0-0.021502 7.786648l11.735774 11.73475-11.735774 11.73475c-2.110228 2.104084-2.136849 5.633417 0.021502 7.786647a5.482906 5.482906 0 0 0 7.786647 0.022526l11.735774-11.73475 11.735774 11.73475c2.104084 2.111252 5.627274 2.137873 7.786648-0.022526a5.484954 5.484954 0 0 0 0.021501-7.786647l-11.735773-11.73475zM252.30275 772.246052l11.735774-11.734749c2.110228-2.104084 2.136849-5.633417-0.021502-7.786648a5.484954 5.484954 0 0 0-7.786648-0.022526l-11.735773 11.73475-11.735774-11.73475c-2.104084-2.10818-5.633417-2.137873-7.786648 0.022526a5.484954 5.484954 0 0 0-0.021501 7.786648l11.735773 11.734749-11.735773 11.73475c-2.110228 2.104084-2.136849 5.633417 0.021501 7.786648a5.482906 5.482906 0 0 0 7.786648 0.022526l11.735774-11.73475 11.735773 11.73475c2.104084 2.111252 5.627274 2.137873 7.786648-0.022526a5.484954 5.484954 0 0 0 0.021502-7.786648l-11.735774-11.73475zM451.119779 222.928504a5.511575 5.511575 0 0 0 5.521813-5.522837 5.508503 5.508503 0 0 0-5.521813-5.522838c-3.071656 0-5.521814 2.474731-5.521814 5.522838a5.506455 5.506455 0 0 0 5.521814 5.522837M736.780713 282.987569a5.511575 5.511575 0 0 0 5.521813-5.522837 5.508503 5.508503 0 0 0-5.521813-5.522837c-3.071656 0-5.521814 2.474731-5.521814 5.522837a5.506455 5.506455 0 0 0 5.521814 5.522837M815.900427 491.801814a5.511575 5.511575 0 0 0 5.521814-5.522837 5.507479 5.507479 0 0 0-5.521814-5.522838c-3.071656 0-5.521814 2.474731-5.521813 5.522838a5.504408 5.504408 0 0 0 5.521813 5.522837M223.339082 211.881805a5.511575 5.511575 0 0 0 5.521814-5.522837 5.508503 5.508503 0 0 0-5.521814-5.522838c-3.071656 0-5.521814 2.474731-5.521814 5.522838a5.506455 5.506455 0 0 0 5.521814 5.522837M187.510263 427.266322a5.511575 5.511575 0 0 0 5.521813-5.522837 5.508503 5.508503 0 0 0-5.521813-5.522838c-3.071656 0-5.521814 2.474731-5.521814 5.522838a5.506455 5.506455 0 0 0 5.521814 5.522837M253.585678 584.622138a5.511575 5.511575 0 0 0 5.521814-5.522837 5.508503 5.508503 0 0 0-5.521814-5.522838c-3.071656 0-5.521814 2.474731-5.521813 5.522838a5.506455 5.506455 0 0 0 5.521813 5.522837M340.345625 622.434223a5.511575 5.511575 0 0 0 5.521814-5.522837 5.507479 5.507479 0 0 0-5.521814-5.522838c-3.071656 0-5.521814 2.474731-5.521813 5.522838a5.506455 5.506455 0 0 0 5.521813 5.522837M698.662486 443.888077a5.511575 5.511575 0 0 0 5.521813-5.522838 5.508503 5.508503 0 0 0-5.521813-5.522837c-3.071656 0-5.521814 2.474731-5.521814 5.522837a5.506455 5.506455 0 0 0 5.521814 5.522838M126.175436 665.755835a5.511575 5.511575 0 0 0 5.521814-5.522837 5.508503 5.508503 0 0 0-5.521814-5.522838c-3.071656 0-5.521814 2.474731-5.521813 5.522838a5.506455 5.506455 0 0 0 5.521813 5.522837M71.437503 565.331115a5.511575 5.511575 0 0 0 5.521814-5.522838 5.507479 5.507479 0 0 0-5.521814-5.522837c-3.071656 0-5.521814 2.474731-5.521814 5.522837a5.506455 5.506455 0 0 0 5.521814 5.522838M413.068104 793.402595a5.511575 5.511575 0 0 0 5.521814-5.522838 5.507479 5.507479 0 0 0-5.521814-5.522837c-3.071656 0-5.521814 2.474731-5.521813 5.522837a5.506455 5.506455 0 0 0 5.521813 5.522838M108.22775 256.754603a5.511575 5.511575 0 0 0 5.521814-5.522837 5.507479 5.507479 0 0 0-5.521814-5.522837c-3.071656 0-5.521814 2.474731-5.521813 5.522837a5.505431 5.505431 0 0 0 5.521813 5.522837" fill="#404041" /><path d="M852.802278 400.133361a2.902715 2.902715 0 0 1-2.899643-2.899643v-12.063417c0-1.599309 1.300334-2.899643 2.899643-2.899643s2.899643 1.300334 2.899643 2.899643v12.063417a2.902715 2.902715 0 0 1-2.899643 2.899643z" fill="#404041" /><path d="M858.836034 394.099605h-12.063417c-1.599309 0-2.898619-1.300334-2.898619-2.899643s1.300334-2.899643 2.898619-2.899644h12.063417c1.599309 0 2.899643 1.300334 2.899644 2.899644s-1.300334 2.899643-2.899644 2.899643z" fill="#404041" /><path d="M725.619339 563.215768a2.901691 2.901691 0 0 1-2.89862-2.899643V548.252708c0-1.599309 1.300334-2.899643 2.89862-2.899644s2.899643 1.300334 2.899643 2.899644v12.063417a2.902715 2.902715 0 0 1-2.899643 2.899643z" fill="#404041" /><path d="M731.648999 557.186107h-12.063417c-1.599309 0-2.898619-1.300334-2.898619-2.898619s1.300334-2.899643 2.898619-2.899643h12.063417c1.599309 0 2.899643 1.300334 2.899644 2.899643s-1.300334 2.898619-2.899644 2.898619z" fill="#404041" /><path d="M305.412706 232.366679a2.900667 2.900667 0 0 1-2.899643-2.899643V217.404643a2.900667 2.900667 0 0 1 2.899643-2.899644 2.900667 2.900667 0 0 1 2.899643 2.899644v12.063417a2.900667 2.900667 0 0 1-2.899643 2.898619z" fill="#404041" /><path d="M311.444414 226.337018h-12.063417c-1.601357 0-2.899643-1.300334-2.899643-2.899643s1.298287-2.899643 2.899643-2.899643h12.063417c1.601357 0 2.899643 1.300334 2.899643 2.899643s-1.298287 2.899643-2.899643 2.899643z" fill="#404041" /><path d="M311.444414 489.685443a2.900667 2.900667 0 0 1-2.899643-2.899643v-12.063417a2.900667 2.900667 0 0 1 2.899643-2.899643 2.900667 2.900667 0 0 1 2.899643 2.899643v12.063417a2.900667 2.900667 0 0 1-2.899643 2.899643z" fill="#404041" /><path d="M317.476123 483.655783h-12.063417c-1.601357 0-2.899643-1.300334-2.899643-2.899644s1.298287-2.899643 2.899643-2.899643h12.063417c1.601357 0 2.899643 1.300334 2.899643 2.899643s-1.298287 2.899643-2.899643 2.899644z" fill="#404041" /><path d="M253.585678 657.098885a2.900667 2.900667 0 0 1-2.899643-2.899643v-12.063417a2.900667 2.900667 0 0 1 2.899643-2.899643 2.900667 2.900667 0 0 1 2.899644 2.899643v12.063417a2.900667 2.900667 0 0 1-2.899644 2.899643z" fill="#404041" /><path d="M259.617387 651.069224h-12.063417c-1.601357 0-2.899643-1.300334-2.899643-2.899643s1.298287-2.899643 2.899643-2.899643h12.063417c1.601357 0 2.899643 1.300334 2.899643 2.899643s-1.298287 2.899643-2.899643 2.899643z" fill="#404041" /><path d="M340.345625 710.882557a2.900667 2.900667 0 0 1-2.899643-2.898619v-12.063417c0-1.599309 1.298287-2.899643 2.899643-2.899643s2.899643 1.300334 2.899644 2.899643v12.063417a2.900667 2.900667 0 0 1-2.899644 2.898619z" fill="#404041" /><path d="M346.377334 704.852896h-12.063417c-1.601357 0-2.899643-1.300334-2.899643-2.899643s1.298287-2.899643 2.899643-2.899643h12.063417c1.601357 0 2.899643 1.300334 2.899643 2.899643s-1.298287 2.899643-2.899643 2.899643z" fill="#404041" /><path d="M82.991025 781.178428a2.900667 2.900667 0 0 1-2.899643-2.899643v-12.063417a2.900667 2.900667 0 0 1 5.799286 0v12.063417a2.902715 2.902715 0 0 1-2.899643 2.899643z" fill="#404041" /><path d="M89.02171 775.148767H76.959317a2.900667 2.900667 0 0 1 0-5.798262h12.063416c1.601357 0 2.899643 1.300334 2.899644 2.898619s-1.29931 2.899643-2.900667 2.899643z" fill="#404041" /><path d="M82.991025 430.673813a2.900667 2.900667 0 0 1-2.899643-2.899644V415.710752a2.900667 2.900667 0 0 1 2.899643-2.899643 2.900667 2.900667 0 0 1 2.899643 2.899643v12.063417a2.902715 2.902715 0 0 1-2.899643 2.899644z" fill="#404041" /><path d="M89.02171 424.640056H76.959317c-1.601357 0-2.899643-1.300334-2.899644-2.899643s1.298287-2.899643 2.899644-2.899643h12.063416c1.601357 0 2.899643 1.300334 2.899644 2.899643s-1.29931 2.899643-2.900667 2.899643z" fill="#404041" /><path d="M612.605948 232.366679a2.902715 2.902715 0 0 1-2.899643-2.899643V217.404643c0-1.599309 1.300334-2.899643 2.899643-2.899644s2.899643 1.300334 2.899643 2.899644v12.063417a2.901691 2.901691 0 0 1-2.899643 2.898619z" fill="#404041" /><path d="M618.635609 226.337018h-12.063417c-1.599309 0-2.899643-1.300334-2.899643-2.899643s1.300334-2.899643 2.899643-2.899643h12.063417c1.599309 0 2.899643 1.300334 2.899643 2.899643s-1.300334 2.899643-2.899643 2.899643z" fill="#404041" /><path d="M944.624314 325.719423a2.902715 2.902715 0 0 1-2.899643-2.899643v-12.063417c0-1.599309 1.300334-2.899643 2.899643-2.899643s2.899643 1.300334 2.899643 2.899643v12.063417a2.902715 2.902715 0 0 1-2.899643 2.899643z" fill="#404041" /><path d="M950.652951 319.690787h-12.063417c-1.599309 0-2.899643-1.300334-2.899643-2.899644s1.300334-2.899643 2.899643-2.899643h12.063417c1.599309 0 2.898619 1.300334 2.898619 2.899643s-1.29931 2.899643-2.898619 2.899644z" fill="#404041" /><path d="M944.624314 663.132641a2.902715 2.902715 0 0 1-2.899643-2.899643v-12.063417c0-1.599309 1.300334-2.899643 2.899643-2.899643s2.899643 1.300334 2.899643 2.899643v12.063417a2.903739 2.903739 0 0 1-2.899643 2.899643z" fill="#404041" /><path d="M950.652951 657.098885h-12.063417c-1.599309 0-2.899643-1.300334-2.899643-2.899643s1.300334-2.899643 2.899643-2.899644h12.063417c1.599309 0 2.898619 1.300334 2.898619 2.899644s-1.29931 2.899643-2.898619 2.899643z" fill="#404041" /><path d="M789.695106 657.098885a2.902715 2.902715 0 0 1-2.899643-2.899643v-12.063417c0-1.599309 1.300334-2.899643 2.899643-2.899643s2.899643 1.300334 2.899643 2.899643v12.063417a2.902715 2.902715 0 0 1-2.899643 2.899643z" fill="#404041" /><path d="M795.724767 651.069224h-12.063417c-1.599309 0-2.899643-1.300334-2.899643-2.899643s1.300334-2.899643 2.899643-2.899643h12.063417c1.599309 0 2.899643 1.300334 2.899643 2.899643s-1.300334 2.899643-2.899643 2.899643z" fill="#404041" /><path d="M641.022861 631.93076a2.902715 2.902715 0 0 1-2.899643-2.899643v-12.063417c0-1.599309 1.300334-2.899643 2.899643-2.899644s2.899643 1.300334 2.899644 2.899644v12.063417a2.902715 2.902715 0 0 1-2.899644 2.899643z" fill="#404041" /><path d="M647.056618 625.901099h-12.063417c-1.599309 0-2.899643-1.300334-2.899643-2.899643s1.300334-2.899643 2.899643-2.899643h12.063417c1.599309 0 2.899643 1.300334 2.899643 2.899643s-1.300334 2.899643-2.899643 2.899643z" fill="#404041" /><path d="M846.772617 819.306894a2.901691 2.901691 0 0 1-2.898619-2.89862v-12.063417c0-1.599309 1.300334-2.899643 2.898619-2.899643s2.899643 1.300334 2.899644 2.899643v12.063417a2.901691 2.901691 0 0 1-2.899644 2.89862z" fill="#404041" /><path d="M852.802278 813.273137h-12.063417c-1.599309 0-2.898619-1.300334-2.898619-2.898619s1.300334-2.899643 2.898619-2.899643h12.063417c1.599309 0 2.899643 1.300334 2.899643 2.899643s-1.300334 2.898619-2.899643 2.898619z" fill="#404041" /><path d="M571.754971 812.258467a2.900667 2.900667 0 0 1-2.898619-2.899643v-12.063417a2.900667 2.900667 0 0 1 2.898619-2.899643 2.900667 2.900667 0 0 1 2.899644 2.899643v12.063417a2.900667 2.900667 0 0 1-2.899644 2.899643z" fill="#404041" /><path d="M577.78668 806.224711h-12.063417a2.900667 2.900667 0 0 1-2.899643-2.89862 2.900667 2.900667 0 0 1 2.899643-2.899643h12.063417a2.897595 2.897595 0 0 1 0 5.798263z" fill="#404041" /><path d="M350.684819 343.794071a4.637177 4.637177 0 0 1-4.6382-4.6382v-34.468076c0-2.563809 2.077463-4.638201 4.6382-4.638201s4.638201 2.074392 4.638201 4.638201v34.468076a4.636153 4.636153 0 0 1-4.638201 4.6382zM376.87683 336.12517a4.637177 4.637177 0 0 1-4.638201-4.638201v-34.468075c0-2.563809 2.077463-4.638201 4.638201-4.638201s4.638201 2.074392 4.6382 4.638201v34.468075a4.636153 4.636153 0 0 1-4.6382 4.638201zM402.672597 326.557986a4.637177 4.637177 0 0 1-4.638201-4.638201v-34.468076c0-2.563809 2.077463-4.638201 4.638201-4.6382s4.638201 2.074392 4.6382 4.6382v34.468076a4.636153 4.636153 0 0 1-4.6382 4.638201zM429.730814 318.889084a4.637177 4.637177 0 0 1-4.6382-4.6382v-34.468076c0-2.563809 2.077463-4.638201 4.6382-4.6382s4.638201 2.074392 4.638201 4.6382v34.468076a4.638201 4.638201 0 0 1-4.638201 4.6382zM461.276721 316.57408a4.637177 4.637177 0 0 1-4.638201-4.638201v-34.468075c0-2.563809 2.077463-4.638201 4.638201-4.638201s4.638201 2.074392 4.638201 4.638201v34.468075a4.637177 4.637177 0 0 1-4.638201 4.638201zM490.420593 312.704817a4.637177 4.637177 0 0 1-4.638201-4.6382v-34.468076c0-2.563809 2.077463-4.638201 4.638201-4.638201s4.638201 2.074392 4.6382 4.638201v34.468076a4.637177 4.637177 0 0 1-4.6382 4.6382zM516.705777 312.55533a4.637177 4.637177 0 0 1-4.638201-4.638201v-34.468075a4.638201 4.638201 0 0 1 4.638201-4.638201 4.637177 4.637177 0 0 1 4.6382 4.638201v34.468075a4.638201 4.638201 0 0 1-4.6382 4.638201zM544.152047 314.970675a4.637177 4.637177 0 0 1-4.638201-4.6382v-34.468076a4.638201 4.638201 0 0 1 4.638201-4.6382 4.637177 4.637177 0 0 1 4.6382 4.6382v34.468076a4.637177 4.637177 0 0 1-4.6382 4.6382zM652.387989 338.969523a4.635129 4.635129 0 0 1-4.638201-4.6382v-29.829875a4.635129 4.635129 0 0 1 4.638201-4.638201 4.635129 4.635129 0 0 1 4.6382 4.638201v29.829875a4.634105 4.634105 0 0 1-4.6382 4.6382z" fill="#404041" /><path d="M685.099077 389.040587c-122.890812-70.595869-248.393556-70.595869-372.590846 0-3.921481 2.613979-9.151487 1.306478-11.76649-2.615003-2.613979-3.921481-1.305454-9.150463 2.615003-11.765466 129.427296-73.210872 260.160046-73.210872 388.279841 0 3.921481 2.616027 5.230006 7.845009 2.615003 11.765466-4.089398 4.751852-9.152511 2.615003-9.152511 2.615003z" fill="#404041" /><path d="M694.250564 321.057674c-128.117747-73.210872-260.16107-73.210872-388.280865 0-3.920457 2.615003-5.228982 6.537508-3.920457 10.457964l39.330507 95.74966h18.365432l-39.391941-95.74966c118.96626-65.364839 239.242069-65.364839 358.210377 0L499.457405 766.860416 372.117811 457.340906l-16.678068 4.154926 136.173676 331.514615c1.305454 2.613979 3.921481 5.230006 7.843986 5.230006 3.920457 0 6.536484-2.616027 7.845009-5.230006L698.172045 331.516662c1.308525-3.921481 0-7.842962-3.921481-10.458988z" fill="#404041" /><path d="M355.440767 416.807334l-15.095142 7.954565 4.261411 10.55421c1.367911 3.387013 4.756971 5.398947 8.282208 5.236149a8.621114 8.621114 0 0 0 2.750156-0.584638c4.368919-1.69965 6.511911-6.539556 4.788712-10.810182l-4.987345-12.350104zM359.114467 470.538788l15.095142-7.954565-4.261411-10.55421c-1.367911-3.387013-4.756971-5.398947-8.282209-5.23615a8.621114 8.621114 0 0 0-2.750156 0.584639c-4.368919 1.69965-6.511911 6.539556-4.788711 10.810181l4.987345 12.350105z" fill="#404041" /><path d="M606.573216 421.775225c-38.634265 0-70.027613 31.3913-70.027613 70.025565 0 38.637337 31.392324 70.028637 70.027613 70.028637 38.636313 0 70.028637-31.3913 70.028637-70.028637 0-38.634265-31.392324-70.025565-70.028637-70.025565z" fill="#33B88C" /><path d="M606.573216 567.62769c-41.833907 0-75.825876-33.989921-75.825876-75.8269 0-41.833907 33.991969-75.824852 75.825876-75.824851 41.83493 0 75.826899 33.989921 75.826899 75.824851 0 41.836978-33.990945 75.826899-75.826899 75.8269z m0-135.961733c-32.683443 0-58.830403 26.144912-58.830403 58.830403 0 32.681396 26.14696 58.830403 58.830403 58.830403s58.830403-26.149007 58.830403-58.830403c0-31.375942-26.14696-58.830403-58.830403-58.830403z" fill="#404041" /><path d="M445.596941 610.260227c-16.87363 0-31.875598 15.000944-31.875598 31.878669 0 16.87875 15.001968 31.877646 31.875598 31.877646 16.876702 0 31.87867-14.998896 31.87867-31.877646-0.001024-16.877726-13.125186-31.87867-31.87867-31.878669z" fill="#33B88C" /><path d="M445.596941 681.3578c-20.916953 0-39.218903-16.996496-39.218903-39.219927 0-20.916953 16.996496-39.218903 39.218903-39.218904 22.225479 0 39.220951 16.994449 39.220951 39.218904 0 20.917977-16.996496 39.219927-39.220951 39.219927z m0-61.445406c-11.764442 0-22.222407 10.457965-22.222407 22.225479s10.457965 22.224455 22.222407 22.224454c11.76649 0 22.225479-10.456941 22.225479-22.224454s-9.151487-22.225479-22.225479-22.225479z" fill="#404041" /><path d="M477.473563 358.522661c-16.87363 0-31.875598 15.000944-31.875598 31.87867 0 16.87875 15.001968 31.876622 31.875598 31.876622 16.876702 0 31.87867-14.998896 31.87867-31.876622s-13.124162-31.87867-31.87867-31.87867z" fill="#33B88C" /><path d="M477.473563 429.620235c-20.916953 0-39.218903-16.996496-39.218904-39.219928 0-20.916953 16.996496-39.218903 39.218904-39.218903 22.225479 0 39.220951 16.994449 39.220951 39.218903 0 20.917977-16.995473 39.219927-39.220951 39.219928z m0-61.445407c-11.764442 0-22.222407 10.458989-22.222407 22.225479s10.457965 22.223431 22.222407 22.223431c11.76649 0 22.225479-10.456941 22.225479-22.223431 0-11.76649-9.150463-22.225479-22.225479-22.225479z" fill="#404041" /><path d="M551.407298 632.993553c-14.935415 0-28.212136 13.277745-28.212136 28.214184 0 14.938487 13.277745 28.21316 28.212136 28.21316 14.936439 0 28.214184-13.274673 28.214184-28.21316 0-14.936439-11.615979-28.214184-28.214184-28.214184z" fill="#33B88C" /><path d="M551.407298 695.920521c-18.512871 0-34.71176-15.042923-34.71176-34.712784 0-18.512871 15.042923-34.712784 34.71176-34.712784 19.670885 0 34.713808 15.041899 34.713808 34.712784 0 18.512871-15.042923 34.712784-34.713808 34.712784z m0-54.384693c-10.41189 0-19.668837 9.256947-19.668837 19.670885s9.256947 19.669861 19.668837 19.669861c10.413938 0 19.670885-9.255923 19.670885-19.669861s-8.099957-19.670885-19.670885-19.670885z" fill="#404041" /><path d="M419.076263 466.563041c-22.338106 0-42.19841 19.858256-42.198409 42.200457 0 22.344249 19.860304 42.199434 42.198409 42.199434 22.341178 0 42.200458-19.856208 42.200458-42.199434 0-22.342202-17.37431-42.200458-42.200458-42.200457z" fill="#33B88C" /><path d="M419.076263 560.682676c-27.689955 0-51.919177-22.49988-51.919177-51.920201 0-27.689955 22.49988-51.919177 51.919177-51.919177 29.421345 0 51.921225 22.496808 51.921225 51.919177 0 27.690979-22.49988 51.920201-51.921225 51.920201z m0-81.34257c-15.57432 0-29.418273 13.844977-29.418273 29.422369 0 15.576367 13.844977 29.419297 29.418273 29.419297 15.577391 0 29.421345-13.843953 29.421345-29.419297 0-15.576367-12.113587-29.422369-29.421345-29.422369z" fill="#404041" /></svg>